<svg id="Слой_1" data-name="Слой 1" xmlns="http://www.w3.org/2000/svg" xmlns:xlink="http://www.w3.org/1999/xlink" viewBox="0 0 2000 2000"><defs><style>.cls-1{fill:url(#Безымянный_градиент_424);}.cls-2{fill:url(#Безымянный_градиент_424-2);}.cls-3{fill:url(#Безымянный_градиент_424-3);}</style><linearGradient id="Безымянный_градиент_424" x1="777.95" y1="1653.49" x2="1088.51" y2="800.25" gradientUnits="userSpaceOnUse"><stop offset="0" stop-color="blue"/><stop offset="0.11" stop-color="#0609ff"/><stop offset="0.3" stop-color="#1523ff"/><stop offset="0.54" stop-color="#2f4cff"/><stop offset="0.82" stop-color="#5185ff"/><stop offset="1" stop-color="#6aaeff"/></linearGradient><linearGradient id="Безымянный_градиент_424-2" x1="1452.8" y1="1028" x2="1755.8" y2="195.5" xlink:href="#Безымянный_градиент_424"/><linearGradient id="Безымянный_градиент_424-3" x1="318.95" y1="819.87" x2="470.45" y2="403.63" xlink:href="#Безымянный_градиент_424"/></defs><polygon class="cls-1" points="827.3 1647.95 827.3 1302.35 654.5 1302.35 481.7 1129.55 481.7 956.75 827.3 956.75 1172.9 956.75 1518.5 956.75 1518.5 1129.55 1345.7 1302.35 1174.1 1303.55 1172.9 1647.95 1000.1 1734.35 827.3 1647.95"/><polygon class="cls-2" points="1258.7 957.35 1431.5 438.95 1949.9 266.15 1777.1 784.55 1258.7 957.35"/><polygon class="cls-3" points="740.3 957.35 567.5 438.95 49.1 266.15 221.9 784.55 740.3 957.35"/></svg>